<svg id="cb-288" viewBox="0 0 240 240" fill="none" xmlns="http://www.w3.org/2000/svg" class="copyclipboardicon"><g class="sparks"><path d="M146.597 184.209C144.357 185.137 143.293 187.705 144.221 189.944C145.149 192.184 147.716 193.248 149.956 192.32C152.196 191.392 153.259 188.825 152.332 186.585C151.404 184.345 148.836 183.282 146.597 184.209Z" fill="#EB5757" class="spark"></path> <path d="M90.0443 47.6801C87.8046 48.6078 86.7411 51.1755 87.6688 53.4152C88.5965 55.6549 91.1642 56.7184 93.4039 55.7907C95.6436 54.863 96.7071 52.2953 95.7794 50.0556C94.8517 47.8159 92.284 46.7524 90.0443 47.6801Z" fill="#27AE60" class="spark"></path> <path d="M55.7909 146.596C54.8632 144.357 52.2955 143.293 50.0558 144.221C47.8161 145.149 46.7526 147.716 47.6803 149.956C48.608 152.196 51.1757 153.259 53.4154 152.332C55.6551 151.404 56.7186 148.836 55.7909 146.596Z" fill="#F2C94C" class="spark"></path> <path d="M192.32 90.0442C191.393 87.8045 188.825 86.7409 186.585 87.6686C184.345 88.5963 183.282 91.164 184.21 93.4037C185.137 95.6434 187.705 96.707 189.945 95.7792C192.184 94.8515 193.248 92.2838 192.32 90.0442Z" fill="#56CCF2" class="spark"></path> <path d="M184.21 146.596C183.282 148.836 184.345 151.404 186.585 152.332C188.825 153.259 191.393 152.196 192.32 149.956C193.248 147.716 192.184 145.149 189.945 144.221C187.705 143.293 185.137 144.357 184.21 146.596Z" fill="#BB6BD9" class="spark"></path> <path d="M47.68 90.0441C46.7523 92.2838 47.8159 94.8514 50.0556 95.7792C52.2953 96.7069 54.863 95.6433 55.7907 93.4036C56.7184 91.1639 55.6548 88.5962 53.4151 87.6685C51.1754 86.7408 48.6078 87.8044 47.68 90.0441Z" fill="#219653" class="spark"></path> <path d="M93.4037 184.209C91.164 183.282 88.5963 184.345 87.6686 186.585C86.7409 188.825 87.8045 191.392 90.0442 192.32C92.2839 193.248 94.8516 192.184 95.7793 189.945C96.707 187.705 95.6434 185.137 93.4037 184.209Z" fill="#F2994A" class="spark"></path> <path d="M149.956 47.68C147.716 46.7522 145.149 47.8158 144.221 50.0555C143.293 52.2952 144.357 54.8629 146.596 55.7906C148.836 56.7183 151.404 55.6548 152.332 53.4151C153.259 51.1754 152.196 48.6077 149.956 47.68Z" fill="#2F80ED" class="spark"></path></g> <g class="sparks"><path d="M120 25C123.314 25 126 22.3137 126 19C126 15.6863 123.314 13 120 13C116.686 13 114 15.6863 114 19C114 22.3137 116.686 25 120 25Z" fill="#EB5757" class="spark"></path> <path d="M120 227C123.314 227 126 224.314 126 221C126 217.686 123.314 215 120 215C116.686 215 114 217.686 114 221C114 224.314 116.686 227 120 227Z" fill="#27AE60" class="spark"></path> <path d="M215 120C215 123.314 217.686 126 221 126C224.314 126 227 123.314 227 120C227 116.686 224.314 114 221 114C217.686 114 215 116.686 215 120Z" fill="#F2C94C" class="spark"></path> <path d="M13 120C13 123.314 15.6863 126 19 126C22.3137 126 25 123.314 25 120C25 116.686 22.3137 114 19 114C15.6863 114 13 116.686 13 120Z" fill="#56CCF2" class="spark"></path> <path d="M52.8248 52.8248C55.168 50.4817 55.168 46.6827 52.8248 44.3396C50.4817 41.9964 46.6827 41.9964 44.3395 44.3396C41.9964 46.6827 41.9964 50.4817 44.3395 52.8248C46.6827 55.168 50.4817 55.168 52.8248 52.8248Z" fill="#BB6BD9" class="spark"></path> <path d="M195.661 195.661C198.004 193.317 198.004 189.519 195.661 187.175C193.317 184.832 189.518 184.832 187.175 187.175C184.832 189.519 184.832 193.317 187.175 195.661C189.518 198.004 193.317 198.004 195.661 195.661Z" fill="#219653" class="spark"></path> <path d="M187.175 52.8248C189.518 55.168 193.317 55.168 195.661 52.8248C198.004 50.4817 198.004 46.6827 195.661 44.3396C193.317 41.9964 189.518 41.9964 187.175 44.3396C184.832 46.6827 184.832 50.4817 187.175 52.8248Z" fill="#F2994A" class="spark"></path> <path d="M44.3397 195.661C46.6828 198.004 50.4818 198.004 52.8249 195.661C55.1681 193.318 55.1681 189.519 52.8249 187.175C50.4818 184.832 46.6828 184.832 44.3397 187.175C41.9965 189.519 41.9965 193.318 44.3397 195.661Z" fill="#2F80ED" class="spark"></path></g> <path d="M139.913 98.1479C141.189 99.2043 141.368 101.095 140.311 102.372L118.607 128.598C116.218 131.485 111.796 131.499 109.387 128.628L98.7014 115.887C97.6367 114.617 97.8027 112.725 99.0722 111.661C100.342 110.596 102.234 110.762 103.299 112.031L113.985 124.772L135.689 98.5464C136.745 97.27 138.636 97.0916 139.913 98.1479Z" fill="url(#paint0_linear)"></path> <path fill-rule="evenodd" clip-rule="evenodd" d="M104 60C99.9204 60 96.554 63.0537 96.0619 67H95C84.5066 67 76 75.5066 76 86V154C76 164.493 84.5066 173 95 173H145C155.493 173 164 164.493 164 154V86C164 75.5066 155.493 67 145 67H143.938C143.446 63.0537 140.08 60 136 60H104ZM96.0619 73C96.554 76.9463 99.9204 80 104 80H136C140.08 80 143.446 76.9463 143.938 73H145C152.18 73 158 78.8203 158 86V132.566C152.208 141.667 137.379 148.14 120 148.14C102.621 148.14 87.7925 141.667 82 132.566V86C82 78.8203 87.8203 73 95 73H96.0619Z" fill="url(#paint1_linear)"></path> <defs><filter id="filter0_f" x="59" y="51" width="116" height="141" filterUnits="userSpaceOnUse" color-interpolation-filters="sRGB"><feFlood flood-opacity="0" result="BackgroundImageFix"></feFlood> <feBlend mode="normal" in="SourceGraphic" in2="BackgroundImageFix" result="shape"></feBlend> <feGaussianBlur stdDeviation="7" result="effect1_foregroundBlur"></feGaussianBlur></filter> <linearGradient id="paint0_linear" x1="84.4799" y1="169.458" x2="159.66" y2="73.9341" gradientUnits="userSpaceOnUse"><stop stop-color="#2167C4"></stop> <stop offset="1" stop-color="#2B99FF"></stop></linearGradient> <linearGradient id="paint1_linear" x1="84.4799" y1="169.458" x2="159.66" y2="73.9341" gradientUnits="userSpaceOnUse"><stop stop-color="#2167C4"></stop> <stop offset="1" stop-color="#2B99FF"></stop></linearGradient></defs></svg>